<?xml version="1.0" encoding="UTF-8"?>
<svg version="1.1" xmlns="http://www.w3.org/2000/svg" width="1024" height="1024">
<path d="M0 0 C2.36311796 -0.0179739 4.72623645 -0.03587699 7.08935547 -0.05371094 C8.27092224 -0.06269409 9.45248901 -0.07167725 10.66986084 -0.08093262 C38.87128133 -0.24290784 67.06991297 0.35453367 95.26171875 1.0234375 C96.01159058 2.4475293 96.01159058 2.4475293 96.77661133 3.90039062 C100.99594991 11.88214575 105.35002223 19.75245094 109.94921875 27.5234375 C114.590551 35.4184422 119.15865587 43.34725149 123.63671875 51.3359375 C128.41396819 59.84499953 133.33118345 68.26469345 138.32421875 76.6484375 C143.32712054 85.0494235 148.28750772 93.47014759 153.13671875 101.9609375 C153.63051025 102.82477051 154.12430176 103.68860352 154.63305664 104.57861328 C156.59388398 108.02533916 158.51235564 111.46354821 160.26171875 115.0234375 C159.49214844 115.53648437 158.72257813 116.04953125 157.9296875 116.578125 C157.39448486 116.93495361 156.85928223 117.29178223 156.30786133 117.65942383 C155.01482887 118.52138885 153.72168942 119.38319336 152.4284668 120.24487305 C148.21680925 123.05155706 144.00754539 125.86176749 139.80078125 128.67578125 C129.3041712 135.69138568 118.79262599 142.68271449 108.2421875 149.6171875 C104.58198326 152.02336451 100.92179273 154.42956235 97.26171875 156.8359375 C96.33141846 157.44751709 95.40111816 158.05909668 94.44262695 158.68920898 C79.15196513 168.746675 63.96222823 178.94644569 48.80859375 189.20889282 C37.96815249 196.54687946 27.08952607 203.77844217 16.01220703 210.75512695 C2.34694881 219.42042134 -10.98945822 228.59357143 -24.38656616 237.66503906 C-27.75947544 239.94870008 -31.13375965 242.23032636 -34.50787354 244.51220703 C-36.55020637 245.89600587 -38.58879925 247.28512411 -40.62646484 248.67578125 C-41.70879395 249.40925781 -42.79112305 250.14273438 -43.90625 250.8984375 C-44.81012451 251.51460937 -45.71399902 252.13078125 -46.64526367 252.765625 C-48.73828125 254.0234375 -48.73828125 254.0234375 -50.73828125 254.0234375 C-50.73828125 254.6834375 -50.73828125 255.3434375 -50.73828125 256.0234375 C-39.45758893 256.04186615 -28.17689827 256.05323941 -16.8961935 256.06055021 C-14.96680155 256.06185088 -13.03740968 256.06328314 -11.10801792 256.06484652 C14.56063461 256.08543202 40.22639894 256.01967137 65.89416599 255.79845095 C85.17156437 255.63234298 104.44850222 255.53173696 123.72655487 255.4819603 C135.37819473 255.44935453 147.02785795 255.38086424 158.67871094 255.23828125 C169.12283083 255.11062553 179.56509625 255.04844726 190.01002002 255.06081164 C195.45150838 255.06510838 200.88864444 255.04079232 206.32920074 254.93510056 C235.08615317 254.40232359 255.17848104 258.53905623 279.59310818 273.99134874 C283.62373918 276.48442232 287.83330619 278.66642831 292.01171875 280.8984375 C293.70021227 281.82892857 295.38781161 282.76104543 297.07421875 283.6953125 C307.24336541 289.22997254 317.60712027 294.40884578 327.93261719 299.64404297 C336.68583876 304.09297798 345.33617679 308.67705482 353.90026855 313.48052979 C360.36477217 317.10193347 366.91313407 320.5265582 373.51171875 323.8984375 C382.05242466 328.29142036 390.53611729 332.76571479 398.94921875 337.3984375 C405.49695453 341.00007025 412.07054792 344.49468185 418.77368164 347.79736328 C425.06800944 350.90510301 431.31400382 354.10526573 437.55093384 357.32623291 C438.76196516 357.95108521 439.97368271 358.57460955 441.18612671 359.19671631 C442.90325796 360.0781094 444.61768374 360.96476706 446.33203125 361.8515625 C447.82887451 362.6235498 447.82887451 362.6235498 449.35595703 363.41113281 C452.45105572 365.12849391 455.37435626 366.97627873 458.26171875 369.0234375 C458.26171875 369.3534375 458.26171875 369.6834375 458.26171875 370.0234375 C412.25804259 370.16865827 366.25435899 370.31143767 320.25067002 370.4525364 C317.52255268 370.46090427 314.79443536 370.46927575 312.06631804 370.4776473 C208.00919286 370.79687694 103.95202142 371.09149378 -88.0712502 371.57757455 C-91.43707419 371.58596565 -94.80289817 371.59435972 -98.16872215 371.60275412 C-155.02523804 371.74453486 -211.88175752 371.88483594 -268.73828125 372.0234375 C-269.08228155 373.05580662 -269.42628185 374.08817574 -269.78070641 375.15182877 C-271.0738692 379.03260311 -272.36717816 382.91332873 -273.66052818 386.79404068 C-274.2171239 388.46417843 -274.77368155 390.13432888 -275.33019829 391.80449295 C-278.36654924 400.91680774 -281.40538821 410.02822218 -284.46484375 419.1328125 C-285.19698243 421.31536099 -285.92883579 423.49800493 -286.66064453 425.68066406 C-287.14600872 427.12630056 -287.63240206 428.57159178 -288.11962891 430.01660156 C-288.86253072 432.22106643 -289.60154436 434.42680266 -290.33984375 436.6328125 C-290.75572754 437.86999023 -291.17161133 439.10716797 -291.60009766 440.38183594 C-292.80588778 444.23974359 -293.79423126 448.09432423 -294.73828125 452.0234375 C-294.15820312 451.81847656 -293.578125 451.61351562 -292.98046875 451.40234375 C-291.80871094 450.99822266 -291.80871094 450.99822266 -290.61328125 450.5859375 C-289.46472656 450.18568359 -289.46472656 450.18568359 -288.29296875 449.77734375 C-275.1981685 445.91297609 -259.2949362 446.89314514 -246.96875 452.76171875 C-240.47701071 456.43392854 -235.22046448 461.09538872 -230.73828125 467.0234375 C-229.74828125 466.3634375 -228.75828125 465.7034375 -227.73828125 465.0234375 C-227.82078125 465.9721875 -227.90328125 466.9209375 -227.98828125 467.8984375 C-228.00158818 471.23182344 -227.21659071 473.55352186 -225.86328125 476.5859375 C-222.29243853 484.86725359 -221.43198946 494.06440251 -221.73828125 503.0234375 C-222.06828125 503.6834375 -222.39828125 504.3434375 -222.73828125 505.0234375 C-230.32828125 505.3534375 -237.91828125 505.6834375 -245.73828125 506.0234375 C-246.06828125 507.6734375 -246.39828125 509.3234375 -246.73828125 511.0234375 C-247.80078125 513.3359375 -247.80078125 513.3359375 -248.73828125 515.0234375 C-248.16384277 515.04849365 -247.5894043 515.0735498 -246.99755859 515.09936523 C-244.36928404 515.21613625 -241.7412973 515.33849169 -239.11328125 515.4609375 C-237.75783203 515.51991211 -237.75783203 515.51991211 -236.375 515.58007812 C-231.75611979 515.79922208 -227.28674489 516.1243226 -222.73828125 517.0234375 C-225.82857141 528.24607018 -230.94199657 537.20241341 -240.94921875 543.390625 C-248.54646061 547.54575081 -257.05729237 550.0234375 -265.73828125 550.0234375 C-266.11082031 551.24160156 -266.48335937 552.45976563 -266.8671875 553.71484375 C-268.97435339 560.0240404 -271.83478393 565.95538019 -274.67578125 571.9609375 C-275.24892331 573.18187044 -275.8215053 574.40306644 -276.39355469 575.62451172 C-277.27805979 577.51284745 -278.16295546 579.40098992 -279.04971313 581.28826904 C-282.23058683 588.05905546 -285.36017669 594.85313052 -288.48828125 601.6484375 C-289.48273986 603.8074451 -290.4775023 605.96631281 -291.47265625 608.125 C-291.88741211 609.02557129 -292.30216797 609.92614258 -292.72949219 610.85400391 C-293.3799653 612.25286743 -294.04836322 613.64360144 -294.73828125 615.0234375 C-301.33828125 615.0234375 -307.93828125 615.0234375 -314.73828125 615.0234375 C-311.46243522 608.21312601 -308.00194536 601.68179755 -304.11328125 595.2109375 C-299.44685944 587.4264162 -295.24360162 579.43928055 -291.08642578 571.37353516 C-287.17273862 563.79770941 -283.06720819 556.36988116 -278.73828125 549.0234375 C-279.97578125 548.9615625 -281.21328125 548.8996875 -282.48828125 548.8359375 C-294.36969761 547.40421753 -304.24117432 541.25475066 -311.73828125 532.0234375 C-314.18063273 528.42135896 -316.48513621 524.7463124 -318.73828125 521.0234375 C-330.2120484 552.30742263 -341.58799195 583.62262278 -352.73828125 615.0234375 C-358.67828125 615.0234375 -364.61828125 615.0234375 -370.73828125 615.0234375 C-369.87203125 612.2184375 -369.00578125 609.4134375 -368.11328125 606.5234375 C-367.85466309 605.67716797 -367.59604492 604.83089844 -367.32958984 603.95898438 C-365.72293177 598.81858433 -363.9227792 593.76510254 -362.01806641 588.72851562 C-361.48162398 587.30409031 -360.94521771 585.87965138 -360.40884399 584.4552002 C-360.1332729 583.72446793 -359.8577018 582.99373566 -359.57378006 582.24085999 C-358.22049564 578.64922912 -356.87419749 575.05498363 -355.52734375 571.4609375 C-355.00003507 570.05467435 -354.47269141 568.64842431 -353.9453125 567.2421875 C-353.68572754 566.54996094 -353.42614258 565.85773437 -353.15869141 565.14453125 C-351.01855469 559.4375 -348.87841797 553.73046875 -346.73828125 548.0234375 C-347.55973129 548.02565811 -348.38118134 548.02787872 -349.2275238 548.03016663 C-357.09287107 548.05047545 -364.95820914 548.06556382 -372.82357693 548.07524967 C-376.86408574 548.08039712 -380.90457233 548.0873401 -384.94506836 548.09887695 C-403.90419735 548.15162307 -422.79897359 548.02639919 -441.73828125 547.0234375 C-442.39562908 543.85177518 -442.89651379 540.89127207 -442.92578125 537.6484375 C-442.93996094 536.93945312 -442.95414062 536.23046875 -442.96875 535.5 C-442.38146233 529.18914604 -440.30061032 524.91642897 -436.36328125 520.0234375 C-435.92556396 519.47292725 -435.48784668 518.92241699 -435.03686523 518.35522461 C-433.61382001 516.56984961 -432.17621112 514.79683656 -430.73828125 513.0234375 C-429.75666067 511.79649355 -428.77620213 510.56861907 -427.796875 509.33984375 C-425.78225288 506.81372871 -423.76211373 504.29217817 -421.73828125 501.7734375 C-418.89809959 498.23233697 -416.09603319 494.66253739 -413.30078125 491.0859375 C-409.33638857 486.01820958 -405.30565699 481.00882849 -401.23828125 476.0234375 C-392.90991721 465.81407777 -384.82728485 455.42358499 -376.73828125 445.0234375 C-408.41828125 444.0334375 -408.41828125 444.0334375 -440.73828125 443.0234375 C-441.37043933 438.59833092 -441.87611051 434.8853848 -441.86328125 430.5234375 C-441.86585938 429.646875 -441.8684375 428.7703125 -441.87109375 427.8671875 C-441.71583093 424.54273651 -441.22529776 421.31406343 -440.73828125 418.0234375 C-423.37587196 417.25271764 -406.04613049 416.86249581 -388.66674805 416.89306641 C-385.04146173 416.89845134 -381.41629837 416.8930622 -377.79101562 416.88671875 C-362.74983222 416.8829069 -347.75987139 417.25418529 -332.73828125 418.0234375 C-331.88531181 421.2268589 -331.57406403 424.07365619 -331.55078125 427.3984375 C-331.53660156 428.31367187 -331.52242188 429.22890625 -331.5078125 430.171875 C-332.07195281 437.1519161 -335.2871701 441.52057303 -339.48828125 446.8359375 C-340.06102783 447.57295898 -340.63377441 448.30998047 -341.22387695 449.06933594 C-345.9449544 455.10790847 -350.81173466 461.02464548 -355.70922852 466.92041016 C-360.04146052 472.14281024 -364.21278194 477.46227717 -368.32421875 482.859375 C-375.53583005 492.3114869 -382.96139454 501.58901767 -390.49926758 510.7824707 C-391.02286865 511.42273193 -391.54646973 512.06299316 -392.0859375 512.72265625 C-392.55008057 513.28815186 -393.01422363 513.85364746 -393.49243164 514.4362793 C-394.64900123 515.90969864 -395.69925541 517.46489873 -396.73828125 519.0234375 C-390.80165864 519.16862874 -384.86497494 519.31089462 -378.92822266 519.45068359 C-376.91713665 519.49842166 -374.90606805 519.54689938 -372.89501953 519.59619141 C-360.17320916 519.90740893 -347.46398297 520.09503076 -334.73828125 520.0234375 C-329.18824707 507.70539695 -324.32607563 495.23190582 -319.84643555 482.48583984 C-317.39837701 475.60063597 -314.61434513 468.8922647 -311.73843384 462.17590332 C-300.11896218 434.97406086 -289.79383641 407.22929944 -279.64526367 379.45068359 C-278.71412226 376.95878374 -277.73556815 374.48952611 -276.73828125 372.0234375 C-284.62055651 371.04762822 -292.4215501 370.85507862 -300.35791016 370.81811523 C-301.69927252 370.80851418 -303.04063201 370.79850287 -304.38198853 370.78811646 C-307.99283282 370.76130228 -311.60368987 370.74016704 -315.2145772 370.72011447 C-318.99955037 370.69810835 -322.78448529 370.67079186 -326.56942749 370.64405823 C-333.72309883 370.59432762 -340.87679163 370.54931674 -348.03050458 370.50603586 C-356.18054623 370.45649469 -364.33054946 370.40163967 -372.48055387 370.34635627 C-389.23309417 370.23283797 -405.98566981 370.12593438 -422.73828125 370.0234375 C-420.59084582 367.82305711 -418.54302186 366.14418818 -415.921875 364.52734375 C-414.78927246 363.82230713 -414.78927246 363.82230713 -413.63378906 363.10302734 C-412.82264648 362.6023877 -412.01150391 362.10174805 -411.17578125 361.5859375 C-404.54878274 357.44944454 -397.97859735 353.2464974 -391.48828125 348.8984375 C-390.74384766 348.39973145 -389.99941406 347.90102539 -389.23242188 347.38720703 C-387.06673174 345.93406508 -384.90246127 344.47882714 -382.73828125 343.0234375 C-375.29486323 338.02975199 -367.83467933 333.06727646 -360.30078125 328.2109375 C-337.88809032 313.75833547 -315.66530792 299.00818426 -293.39599609 284.33618164 C-284.80983766 278.6793778 -276.2220676 273.02506791 -267.62890625 267.37890625 C-252.66426311 257.54523799 -237.71339184 247.69411602 -222.82641602 237.74316406 C-214.01170155 231.85744593 -205.16150039 226.02708792 -196.30078125 220.2109375 C-195.22352783 219.50380112 -195.22352783 219.50380112 -194.12451172 218.78237915 C-192.64563142 217.8116279 -191.16674956 216.84087904 -189.68786621 215.87013245 C-188.93622192 215.37673874 -188.18457764 214.88334503 -187.41015625 214.375 C-186.64529907 213.8729454 -185.88044189 213.37089081 -185.09240723 212.85362244 C-175.07175472 206.27468896 -165.06062983 199.68129344 -155.05078125 193.0859375 C-154.10594879 192.46354187 -153.16111633 191.84114624 -152.18765259 191.19989014 C-140.5751423 183.54928629 -128.96603213 175.89417847 -117.4387207 168.11547852 C-113.15174605 165.23671894 -108.82374203 162.44507431 -104.4309082 159.73170471 C-93.41275103 152.92175789 -82.70644431 145.66837318 -71.98828125 138.3984375 C-69.15248645 136.47877775 -66.31615363 134.55991545 -63.47967529 132.64126587 C-61.73375166 131.45988713 -59.98830487 130.27780318 -58.24346924 129.09481812 C-51.76332365 124.7039717 -45.25187762 120.36583508 -38.73828125 116.0234375 C-66.45828125 115.3634375 -94.17828125 114.7034375 -122.73828125 114.0234375 C-120.96729056 109.59596078 -118.93166931 105.54343434 -116.61328125 101.3984375 C-116.18225098 100.62483887 -115.7512207 99.85124023 -115.30712891 99.05419922 C-111.03005932 91.43885686 -106.56491444 83.93701622 -102.09194946 76.43560791 C-96.72777139 67.4374165 -91.47839013 58.38017775 -86.30078125 49.2734375 C-75.65070977 30.55128051 -75.65070977 30.55128051 -71.8046875 24.703125 C-70.0075102 21.81018821 -69.05984523 18.97432018 -68.078125 15.71875 C-65.88393994 9.48510889 -63.50389097 4.58102497 -57.73828125 1.0234375 C-46.08242443 -2.54828348 -32.31801697 -0.68388259 -20.33447266 -0.19628906 C-13.55302107 0.06156273 -6.7852528 0.05594228 0 0 Z M-283.61328125 475.3359375 C-286.550045 479.05007989 -288.73828125 482.20565219 -288.73828125 487.0234375 C-276.96723357 487.76649963 -265.49277661 488.30754204 -253.73828125 487.0234375 C-254.63878626 480.6218276 -256.47605391 476.88349109 -261.55078125 472.7109375 C-269.43698659 468.53588761 -276.80851806 469.86254102 -283.61328125 475.3359375 Z M-289.73828125 506.0234375 C-288.26281867 516.17732131 -288.26281867 516.17732131 -281.9453125 523.23828125 C-276.89137341 525.98519979 -272.00191623 527.31206041 -266.19848633 526.79882812 C-263.63205516 526.23951763 -263.63205516 526.23951763 -262.25268555 524.18164062 C-261.85992432 523.39724609 -261.46716309 522.61285156 -261.0625 521.8046875 C-260.40991211 520.53044922 -260.40991211 520.53044922 -259.74414062 519.23046875 C-259.30908203 518.33714844 -258.87402344 517.44382812 -258.42578125 516.5234375 C-257.97138672 515.63011719 -257.51699219 514.73679687 -257.04882812 513.81640625 C-254.81864102 510.08832562 -254.81864102 510.08832562 -253.73828125 506.0234375 C-265.61828125 506.0234375 -277.49828125 506.0234375 -289.73828125 506.0234375 Z " fill="#FAFAFA" transform="translate(493.73828125,408.9765625)"/>
<path d="M0 0 C2.11206283 2.77553842 3.9468497 5.52920214 5.64453125 8.578125 C6.14895752 9.47877686 6.65338379 10.37942871 7.1730957 11.30737305 C7.71409912 12.27843994 8.25510254 13.24950684 8.8125 14.25 C13.40665317 22.4395774 18.06320347 30.58691543 22.8125 38.6875 C27.93245495 47.42605355 32.98661046 56.2000661 38 65 C42.95363499 73.6941016 47.94369338 82.36502888 53 91 C58.40294754 100.22695151 63.72625776 109.49732474 69.01849365 118.78799438 C73.6696262 126.95143182 78.37146581 135.08313578 83.125 143.1875 C87.86985609 151.279888 92.50164567 159.42756731 97.0625 167.625 C102.46260161 177.32598786 108.02935704 186.91245988 113.70703125 196.453125 C117.23676544 202.38520158 120.71457461 208.34703543 124.1875 214.3125 C128.08757621 221.00993809 131.99689092 227.7013347 135.9375 234.375 C142.05045138 244.74010817 148.03949743 255.17707769 154.04443359 265.60498047 C157.81258039 272.14678438 161.58673959 278.68512132 165.3605957 285.22363281 C168.56466352 290.77572939 171.76551872 296.3296392 174.9609375 301.88671875 C182.62956101 315.25265652 182.62956101 315.25265652 190.5 328.5 C196.51259881 338.42050091 202.24153972 348.50832025 208.02392578 358.56396484 C217.71116674 375.4083223 227.44407505 392.22506728 237.24853516 409.00146484 C239.04636405 412.07937599 240.84188908 415.15862029 242.63671875 418.23828125 C247.72031224 426.96044139 252.8058764 435.68099772 257.9375 444.375 C266.11290091 458.24235016 274.1359284 472.20041337 282.09765625 486.19140625 C288.45615966 497.36234866 294.84207388 508.50576209 301.50170898 519.5012207 C306.16632229 527.22236472 310.65428541 535.04189225 315.14599609 542.86450195 C319.76076983 550.88726204 324.45377215 558.85969591 329.1875 566.8125 C334.35671536 575.50016861 339.44217553 584.22670582 344.42919922 593.02001953 C348.80239287 600.70717099 353.31468788 608.30887058 357.83685303 615.90908813 C363.46237178 625.36744962 368.99480189 634.8767678 374.48217773 644.41601562 C382.65423 658.62226546 390.83799022 672.82497303 399.31787109 686.8503418 C404.20926111 694.96605625 408.96677154 703.16202642 413.74536133 711.34448242 C416.81454611 716.59586493 419.88321613 721.84536893 423.0625 727.03125 C423.48595703 727.72283203 423.90941406 728.41441406 424.34570312 729.12695312 C425.40070382 730.83887472 426.46547734 732.54476375 427.53125 734.25 C428.9496582 736.90574302 429.60719608 739.03214817 430 742 C424.27739445 740.41814155 419.52111623 737.59961645 414.4375 734.625 C412.54301431 733.52986909 410.64848181 732.43481917 408.75390625 731.33984375 C407.79242676 730.78151855 406.83094727 730.22319336 405.84033203 729.64794922 C401.52742161 727.14561594 397.20296984 724.66367665 392.875 722.1875 C392.02107666 721.69886475 391.16715332 721.21022949 390.28735352 720.70678711 C379.73469765 714.68485429 369.10070906 708.80901983 358.47167969 702.92333984 C352.81149538 699.78754997 347.15592713 696.64345979 341.5 693.5 C334.72739185 689.73678556 327.95435575 685.97434849 321.1796875 682.21484375 C285.64334927 662.49110658 285.64334927 662.49110658 270.23828125 653.7265625 C268.34641197 652.65094 266.45448527 651.57541847 264.5625 650.5 C263.64267334 649.97656006 262.72284668 649.45312012 261.77514648 648.91381836 C256.52745505 645.94334989 251.24671596 643.0445603 245.921875 640.21484375 C245.3279747 639.89855011 244.7340744 639.58225647 244.12217712 639.25637817 C241.22869148 637.71665188 238.33101146 636.18590827 235.42602539 634.66796875 C234.38438232 634.11625 233.34273926 633.56453125 232.26953125 632.99609375 C230.88664917 632.27184204 230.88664917 632.27184204 229.47583008 631.53295898 C224.67848171 628.5625862 222.19519602 624.95517948 219.4609375 620.08203125 C218.97759949 619.22773781 218.97759949 619.22773781 218.48449707 618.35618591 C217.79782103 617.14088274 217.11407534 615.92391989 216.43304443 614.70544434 C215.00174186 612.14470491 213.55626049 609.59207018 212.11160278 607.03884888 C211.39330879 605.76898561 210.67575487 604.49870343 209.95895386 603.22799683 C207.31297954 598.5391513 204.62007992 593.88137044 201.875 589.25 C201.09624834 587.93365635 200.31760471 586.61724878 199.5390625 585.30078125 C199.13848633 584.62354004 198.73791016 583.94629883 198.32519531 583.24853516 C195.61748749 578.65421145 192.93551995 574.04481533 190.25 569.4375 C189.65687012 568.42010742 189.06374023 567.40271484 188.45263672 566.35449219 C187.23982018 564.27397747 186.02709301 562.19341065 184.81445312 560.11279297 C182.45771893 556.06968734 180.09967551 552.02734631 177.74145508 547.98510742 C176.57710817 545.98924739 175.41288361 543.99331598 174.2487793 541.99731445 C171.3461568 537.02052377 168.44213188 532.04456191 165.53515625 527.0703125 C158.85698872 515.63921493 152.21678347 504.18711888 145.60791016 492.71582031 C139.11500122 481.4520275 132.56057444 470.22447236 126 459 C123.68667962 455.04214526 121.37404411 451.08389244 119.0625 447.125 C118.49112305 446.146521 117.91974609 445.16804199 117.33105469 444.15991211 C112.92243665 436.60148821 108.55189183 429.02152514 104.1875 421.4375 C100.34370643 414.75952148 96.4952778 408.08867019 92.5 401.5 C87.82931163 393.7975005 83.35495632 385.98265363 78.86376953 378.17456055 C74.56451894 370.70251225 70.2312198 363.25145161 65.875 355.8125 C61.34978663 348.07841838 56.89324619 340.30977129 52.5 332.5 C43.22602195 316.0188806 33.62544515 299.73083008 23.98461914 283.46240234 C17.22480683 272.03223045 10.60772499 260.51859018 4 249 C3.28626221 247.97245605 2.57252441 246.94491211 1.8371582 245.88623047 C-0.94921164 240.95242566 -0.60322161 235.75578022 -0.609375 230.22265625 C-0.62600189 229.00612869 -0.64262878 227.78960114 -0.65975952 226.53620911 C-0.70125249 223.10895633 -0.72423135 219.68250384 -0.73862457 216.25508881 C-0.75402927 213.2858662 -0.78367858 210.31684639 -0.81288338 207.34773254 C-0.9166114 196.63899535 -0.95835084 185.93021982 -0.99031067 175.22106171 C-1.00047904 171.84075176 -1.01162314 168.46044582 -1.02282715 165.08013916 C-1.07676806 148.31896068 -1.10758152 131.55780887 -1.12159729 114.79655075 C-1.12384437 112.20684146 -1.12643169 109.61713244 -1.12937927 107.02742386 C-1.16961585 71.33925777 -0.8346728 35.67878797 0 0 Z " fill="#F3F3F3" transform="translate(527,14)"/>
<path d="M0 0 C0.33 0 0.66 0 1 0 C1.76049776 10.49711469 2.14612464 20.92762352 2.12939453 31.45654297 C2.13075525 32.92815188 2.1325389 34.39976046 2.13470459 35.87136841 C2.13921936 39.83341242 2.13750873 43.79543002 2.1343255 47.75747442 C2.13174701 51.99197288 2.13415655 56.22646945 2.13571167 60.46096802 C2.13752756 67.6209553 2.13515268 74.78093226 2.13037109 81.94091797 C2.12561592 89.14079475 2.12550065 96.34065065 2.13037109 103.54052734 C2.14193346 121.83812156 2.1288003 140.13504623 2.04833651 158.43249464 C2.0050027 168.3598155 2.00056456 178.28504079 2.07445109 188.2122196 C2.11901314 194.36427141 2.13048649 200.51577991 2.11652029 206.66797602 C2.11004413 210.20316666 2.11991261 213.73630074 2.1748085 217.27111435 C2.38375709 232.88617297 1.94305451 244.70901808 -7.79689503 257.38718033 C-9.59311598 259.79510029 -11.04090632 262.38100863 -12.51171875 264.99609375 C-13.0337085 265.88989746 -13.55569824 266.78370117 -14.09350586 267.70458984 C-14.61952393 268.6064502 -15.14554199 269.50831055 -15.6875 270.4375 C-16.27217041 271.43990723 -16.85684082 272.44231445 -17.45922852 273.47509766 C-23.705754 284.19551963 -29.90273271 294.94438232 -36.09570312 305.69580078 C-38.01506662 309.02614252 -39.93682353 312.35509148 -41.859375 315.68359375 C-47.61613199 325.65143385 -53.36355613 335.62397763 -59.0625 345.625 C-65.62372104 357.13274508 -72.31203116 368.56561218 -79 380 C-86.1992131 392.31470888 -93.37903568 404.6398436 -100.5 417 C-107.04739178 428.36458248 -113.64381519 439.69980115 -120.26171875 451.0234375 C-122.02051627 454.03513124 -123.77633606 457.04854184 -125.53125 460.0625 C-135.0944675 476.4824138 -135.0944675 476.4824138 -139.55859375 484.01171875 C-140.13665771 484.9867334 -140.71472168 485.96174805 -141.31030273 486.96630859 C-142.39258957 488.78935439 -143.47657965 490.61139074 -144.56274414 492.43212891 C-147.65301407 497.63472887 -150.60616984 502.89490787 -153.48632812 508.21655273 C-156.02314817 512.88143746 -158.63592512 517.50308724 -161.25 522.125 C-161.8179126 523.12926025 -162.3858252 524.13352051 -162.97094727 525.16821289 C-167.02455195 532.31831323 -171.14986095 539.42138186 -175.33984375 546.4921875 C-177.98000744 550.95171756 -180.57687112 555.43594055 -183.17480469 559.92016602 C-185.55636701 564.02036513 -187.95807805 568.10857295 -190.36181641 572.19580078 C-191.83798606 574.72266883 -193.28699864 577.26297463 -194.73046875 579.80859375 C-199.69135086 588.38876628 -204.41077895 593.76047744 -213 599 C-224.21862926 605.88338523 -235.1805184 613.08817868 -246.06494141 620.48779297 C-261.9585543 631.2887443 -277.93514909 641.95567686 -294 652.5 C-309.0346777 662.36840821 -323.98400358 672.35361922 -338.875 682.4375 C-350.1005891 690.03827106 -361.31894789 697.61200064 -372.81542969 704.79907227 C-386.40337118 713.330061 -399.65968793 722.38866094 -412.98925781 731.31542969 C-418.32060248 734.88531264 -423.65962951 738.44363691 -429 742 C-429.33 741.34 -429.66 740.68 -430 740 C-429.00634766 737.84643555 -429.00634766 737.84643555 -427.4140625 735.13671875 C-426.82189941 734.11989014 -426.22973633 733.10306152 -425.61962891 732.05541992 C-424.96140137 730.94400635 -424.30317383 729.83259277 -423.625 728.6875 C-422.93987633 727.51775312 -422.25548206 726.34757876 -421.57177734 725.17700195 C-420.12533063 722.70383245 -418.67403975 720.23360117 -417.21875 717.765625 C-415.07498932 714.1298594 -412.94241807 710.48763753 -410.8125 706.84375 C-406.19121337 698.94170986 -401.55415778 691.04895706 -396.91674805 683.15637207 C-394.40172571 678.87573033 -391.88771762 674.59449503 -389.375 670.3125 C-389.02166595 669.7104776 -388.66833191 669.1084552 -388.30429077 668.4881897 C-383.30852328 659.97334249 -378.35798926 651.43364167 -373.4375 642.875 C-367.70289327 632.90054966 -361.86272027 622.99280649 -355.98022461 613.10498047 C-350.79499473 604.37587032 -345.71040619 595.59218338 -340.65551758 586.78710938 C-336.07011762 578.81502004 -331.39453156 570.90049956 -326.6875 563 C-321.8750145 554.92148752 -317.16481768 546.80546223 -312.64624023 538.55908203 C-308.41013272 530.85883084 -303.90618795 523.32070685 -299.41796875 515.765625 C-295.93607634 509.90285753 -292.49469227 504.01696998 -289.0625 498.125 C-288.48072998 497.12629883 -287.89895996 496.12759766 -287.29956055 495.09863281 C-286.12015908 493.0736381 -284.94087858 491.04857293 -283.76171875 489.0234375 C-282.02047583 486.03514034 -280.27638208 483.04852736 -278.53125 480.0625 C-268.71171542 463.25747915 -258.97633626 446.40444786 -249.28125 429.52734375 C-242.27035356 417.33359904 -235.17192568 405.19749883 -227.98291016 393.10791016 C-221.51101488 382.20928253 -215.1769763 371.23348966 -208.86328125 360.24267578 C-198.07346718 341.46511938 -187.19881434 322.73823119 -176.27050781 304.04101562 C-169.64978188 292.71147109 -163.05064773 281.37023397 -156.5 270 C-148.80871162 256.64990822 -141.0451709 243.34266958 -133.27050781 230.04101562 C-124.12559032 214.39201412 -115.04623247 198.70623566 -106 183 C-98.71806492 170.35697001 -91.42953958 157.71867668 -84.0625 145.125 C-78.98724877 136.44737759 -73.97741233 127.73394432 -69 119 C-63.46664403 109.29053256 -57.88119317 99.6134631 -52.23632812 89.96826172 C-47.16689111 81.30242125 -42.14963486 72.60706716 -37.14819336 63.90185547 C-34.45291854 59.21787382 -31.74011296 54.55035913 -28.9375 49.9296875 C-25.78960355 44.70865931 -22.89666496 39.36321101 -20 34 C-17.81354637 30.00130241 -15.61724858 26.008141 -13.41333008 22.01904297 C-12.7593296 20.8334319 -12.10700197 19.64689661 -11.45629883 18.45947266 C-4.43131128 5.64435179 -4.43131128 5.64435179 0 0 Z " fill="#F5F5F5" transform="translate(496,15)"/>
<path d="M0 0 C136.62 0 273.24 0 414 0 C414 0.33 414 0.66 414 1 C283.32 1.33 152.64 1.66 18 2 C14.04 13.88 10.08 25.76 6 38 C4.77023438 41.66609375 3.54046875 45.3321875 2.2734375 49.109375 C1.17544546 52.38327005 1.17544546 52.38327005 0.07763672 55.65722656 C-0.40772747 57.10286306 -0.89412081 58.54815428 -1.38134766 59.99316406 C-2.12424947 62.19762893 -2.86326311 64.40336516 -3.6015625 66.609375 C-4.01744629 67.84655273 -4.43333008 69.08373047 -4.86181641 70.35839844 C-6.06760653 74.21630609 -7.05595001 78.07088673 -8 82 C-7.41992188 81.79503906 -6.83984375 81.59007812 -6.2421875 81.37890625 C-5.46101562 81.10949219 -4.67984375 80.84007812 -3.875 80.5625 C-3.10929688 80.29566406 -2.34359375 80.02882813 -1.5546875 79.75390625 C11.54011275 75.88953859 27.44334505 76.86970764 39.76953125 82.73828125 C46.26127054 86.41049104 51.51781677 91.07195122 56 97 C56.99 96.34 57.98 95.68 59 95 C58.9175 95.94875 58.835 96.8975 58.75 97.875 C58.73669307 101.20838594 59.52169054 103.53008436 60.875 106.5625 C64.44584272 114.84381609 65.30629179 124.04096501 65 133 C64.67 133.66 64.34 134.32 64 135 C56.41 135.33 48.82 135.66 41 136 C40.67 137.65 40.34 139.3 40 141 C38.9375 143.3125 38.9375 143.3125 38 145 C38.57443848 145.02505615 39.14887695 145.0501123 39.74072266 145.07592773 C42.36899721 145.19269875 44.99698395 145.31505419 47.625 145.4375 C48.52863281 145.47681641 49.43226563 145.51613281 50.36328125 145.55664062 C54.98216146 145.77578458 59.45153636 146.1008851 64 147 C60.90970984 158.22263268 55.79628468 167.17897591 45.7890625 173.3671875 C38.19182064 177.52231331 29.68098888 180 21 180 C20.62746094 181.21816406 20.25492188 182.43632813 19.87109375 183.69140625 C17.76392786 190.0006029 14.90349732 195.93194269 12.0625 201.9375 C11.48935794 203.15843294 10.91677595 204.37962894 10.34472656 205.60107422 C9.46022146 207.48940995 8.57532579 209.37755242 7.68856812 211.26483154 C4.50769442 218.03561796 1.37810456 224.82969302 -1.75 231.625 C-2.74445861 233.7840076 -3.73922105 235.94287531 -4.734375 238.1015625 C-5.14913086 239.00213379 -5.56388672 239.90270508 -5.99121094 240.83056641 C-6.64168405 242.22942993 -7.31008197 243.62016394 -8 245 C-14.6 245 -21.2 245 -28 245 C-24.72415397 238.18968851 -21.26366411 231.65836005 -17.375 225.1875 C-12.70857819 217.4029787 -8.50532037 209.41584305 -4.34814453 201.35009766 C-0.43445737 193.77427191 3.67107306 186.34644366 8 179 C6.7625 178.938125 5.525 178.87625 4.25 178.8125 C-7.63141636 177.38078003 -17.50289307 171.23131316 -25 162 C-27.44235148 158.39792146 -29.74685496 154.7228749 -32 151 C-43.47376715 182.28398513 -54.8497107 213.59918528 -66 245 C-71.94 245 -77.88 245 -84 245 C-83.13375 242.195 -82.2675 239.39 -81.375 236.5 C-81.11638184 235.65373047 -80.85776367 234.80746094 -80.59130859 233.93554688 C-78.98465052 228.79514683 -77.18449795 223.74166504 -75.27978516 218.70507812 C-74.74334273 217.28065281 -74.20693646 215.85621388 -73.67056274 214.4317627 C-73.39499165 213.70103043 -73.11942055 212.97029816 -72.83549881 212.21742249 C-71.48221439 208.62579162 -70.13591624 205.03154613 -68.7890625 201.4375 C-68.26175382 200.03123685 -67.73441016 198.62498681 -67.20703125 197.21875 C-66.81765381 196.18041016 -66.81765381 196.18041016 -66.42041016 195.12109375 C-64.28027344 189.4140625 -62.14013672 183.70703125 -60 178 C-61.23217506 178.00333092 -61.23217506 178.00333092 -62.48924255 178.00672913 C-70.35458982 178.02703795 -78.21992789 178.04212632 -86.08529568 178.05181217 C-90.12580449 178.05695962 -94.16629108 178.0639026 -98.20678711 178.07543945 C-117.1659161 178.12818557 -136.06069234 178.00296169 -155 177 C-155.65734783 173.82833768 -156.15823254 170.86783457 -156.1875 167.625 C-156.20167969 166.91601562 -156.21585938 166.20703125 -156.23046875 165.4765625 C-155.64318108 159.16570854 -153.56232907 154.89299147 -149.625 150 C-149.18728271 149.44948975 -148.74956543 148.89897949 -148.29858398 148.33178711 C-146.87553876 146.54641211 -145.43792987 144.77339906 -144 143 C-143.01837942 141.77305605 -142.03792088 140.54518157 -141.05859375 139.31640625 C-139.04397163 136.79029121 -137.02383248 134.26874067 -135 131.75 C-132.15981834 128.20889947 -129.35775194 124.63909989 -126.5625 121.0625 C-122.59810732 115.99477208 -118.56737574 110.98539099 -114.5 106 C-106.17163596 95.79064027 -98.0890036 85.40014749 -90 75 C-111.12 74.34 -132.24 73.68 -154 73 C-154.63215808 68.57489342 -155.13782926 64.8619473 -155.125 60.5 C-155.12757813 59.6234375 -155.13015625 58.746875 -155.1328125 57.84375 C-154.97754968 54.51929901 -154.48701651 51.29062593 -154 48 C-136.63759071 47.22928014 -119.30784924 46.83905831 -101.9284668 46.86962891 C-98.30318048 46.87501384 -94.67801712 46.8696247 -91.05273438 46.86328125 C-76.01155097 46.8594694 -61.02159014 47.23074779 -46 48 C-45.14703056 51.2034214 -44.83578278 54.05021869 -44.8125 57.375 C-44.79832031 58.29023437 -44.78414063 59.20546875 -44.76953125 60.1484375 C-45.33367156 67.1284786 -48.54888885 71.49713553 -52.75 76.8125 C-53.32274658 77.54952148 -53.89549316 78.28654297 -54.4855957 79.04589844 C-59.20667315 85.08447097 -64.07345341 91.00120798 -68.97094727 96.89697266 C-73.30317927 102.11937274 -77.47450069 107.43883967 -81.5859375 112.8359375 C-88.7975488 122.2880494 -96.22311329 131.56558017 -103.76098633 140.7590332 C-104.2845874 141.39929443 -104.80818848 142.03955566 -105.34765625 142.69921875 C-105.81179932 143.26471436 -106.27594238 143.83020996 -106.75415039 144.4128418 C-107.91071998 145.88626114 -108.96097416 147.44146123 -110 149 C-104.06337739 149.14519124 -98.12669369 149.28745712 -92.18994141 149.42724609 C-90.1788554 149.47498416 -88.1677868 149.52346188 -86.15673828 149.57275391 C-73.43492791 149.88397143 -60.72570172 150.07159326 -48 150 C-42.44996582 137.68195945 -37.58779438 125.20846832 -33.1081543 112.46240234 C-30.66009576 105.57719847 -27.87606388 98.8688272 -25.00015259 92.15246582 C-13.38068093 64.95062336 -3.05555516 37.20586194 7.09301758 9.42724609 C8.02415899 6.93534624 9.0027131 4.46608861 10 2 C6.7 1.67 3.4 1.34 0 1 C0 0.67 0 0.34 0 0 Z M3.125 105.3125 C0.18823625 109.02664239 -2 112.18221469 -2 117 C9.77104768 117.74306213 21.24550464 118.28410454 33 117 C32.09949499 110.5983901 30.26222734 106.86005359 25.1875 102.6875 C17.30129466 98.51245011 9.92976319 99.83910352 3.125 105.3125 Z M-3 136 C-1.52453742 146.15388381 -1.52453742 146.15388381 4.79296875 153.21484375 C9.84690784 155.96176229 14.73636502 157.28862291 20.53979492 156.77539062 C23.10622609 156.21608013 23.10622609 156.21608013 24.4855957 154.15820312 C24.87835693 153.37380859 25.27111816 152.58941406 25.67578125 151.78125 C26.32836914 150.50701172 26.32836914 150.50701172 26.99414062 149.20703125 C27.42919922 148.31371094 27.86425781 147.42039062 28.3125 146.5 C28.76689453 145.60667969 29.22128906 144.71335937 29.68945312 143.79296875 C31.91964023 140.06488812 31.91964023 140.06488812 33 136 C21.12 136 9.24 136 -3 136 Z " fill="#F8F8F8" transform="translate(207,779)"/>
<path d="M0 0 C0.680625 0.36609375 1.36125 0.7321875 2.0625 1.109375 C12.90772878 7.63659602 19.47704289 23.00093117 22.6875 34.625 C27.17619863 54.78522448 26.98066633 76.51041036 16.296875 94.9375 C14.62225727 97.38389808 12.86767053 99.69899525 11 102 C10.57847656 102.57105469 10.15695312 103.14210938 9.72265625 103.73046875 C0.51039196 115.79636373 -14.80383037 121.27442547 -29.26953125 123.50390625 C-45.47158214 125.26298606 -62.64823196 121.43362492 -75.88330078 111.60083008 C-91.02043323 99.06507497 -97.47336749 81.23889809 -99.63769531 62.25878906 C-101.12324776 44.91299067 -96.25355453 27.6328799 -87 13 C-86.57203125 12.31292969 -86.1440625 11.62585938 -85.703125 10.91796875 C-78.91911962 0.95157882 -66.42662605 -6.11716024 -54.9375 -9.3125 C-34.81292995 -12.82631382 -17.64697547 -10.41922488 0 0 Z M-58 26 C-65.9388974 36.63356231 -67.98777344 50.82549553 -66.24560547 63.68237305 C-64.68837197 73.68334099 -62.51932747 83.27956804 -54.08203125 89.75 C-47.78392743 93.53122556 -40.39063582 96.35998689 -33 95 C-24.3740267 92.68903007 -18.11779184 89.7536715 -13.3125 82 C-5.95954089 67.6261509 -6.16795484 50.13674752 -11 35 C-14.19246369 27.43836325 -18.5955589 22.58927145 -26 19 C-37.10444643 14.90050903 -49.72558951 17.38631983 -58 26 Z " fill="#FDFDFD" transform="translate(833,835)"/>
<path d="M0 0 C0.65355469 0.41765625 1.30710937 0.8353125 1.98046875 1.265625 C9.95665116 7.11130394 14.26659535 17.48548465 15.90625 26.9765625 C16 29 16 29 15 32 C-4.34042553 33.38297872 -4.34042553 33.38297872 -14 32 C-14.34611328 31.07767578 -14.34611328 31.07767578 -14.69921875 30.13671875 C-16.73796665 24.99173985 -16.73796665 24.99173985 -20.4375 21 C-28.47196503 17.86459901 -36.82438287 18.26848766 -44.953125 20.95703125 C-47.29007714 21.91986464 -47.29007714 21.91986464 -48.6875 24.8125 C-49.02963528 28.30227984 -49.06955003 30.64874325 -48 34 C-44.35445446 38.36790363 -41.23927933 39.95107216 -35.8125 41.5 C-35.11906494 41.70520264 -34.42562988 41.91040527 -33.71118164 42.12182617 C-29.98609525 43.21137549 -26.24072433 44.19983548 -22.4765625 45.14453125 C-14.80558323 47.09816417 -7.70303429 49.27171469 -0.6875 53 C-0.08349365 53.32009033 0.5205127 53.64018066 1.14282227 53.9699707 C9.0862249 58.43707793 14.1253973 64.92370158 16.79296875 73.5703125 C19.42279883 85.6781208 17.72153794 97.81574994 11.625 108.5625 C4.324661 118.82243589 -8.13802725 122.85656345 -20 125 C-36.84959533 127.62023945 -54.6448484 125.03208361 -69.1875 115.9375 C-79.77789941 108.16121615 -83.23004355 96.34092556 -85.765625 84.06640625 C-86 82 -86 82 -85 80 C-79.35496387 78.79116398 -73.27136069 78.78241432 -67.515625 78.9453125 C-64.97702531 79.04052533 -64.97702531 79.04052533 -62.359375 78.8046875 C-59.48788402 78.74450655 -57.633433 78.8250134 -55 80 C-53.03322299 82.91943462 -51.72695194 85.8669244 -50.35546875 89.10546875 C-48.02942237 94.07261678 -44.65563808 95.31826667 -39.8125 97.3125 C-33.41084161 98.46689741 -26.87151958 98.31015639 -21 95.25 C-17.90519253 92.9288944 -16.34541572 91.61580475 -15 88 C-15 83.79941796 -15.52273916 81.65623366 -18 78.25 C-23.77023748 73.92232189 -30.13241819 72.9415949 -37.125 71.625 C-51.97301549 68.71478896 -67.63116746 64.37511962 -76.6875 51.25 C-82.05642967 42.27408042 -84.03628989 33.24286647 -81.5625 23 C-78.97736843 13.43377521 -75.11869302 5.70711228 -66.6875 0.0625 C-46.49582892 -11.43629906 -19.84317582 -13.47334963 0 0 Z " fill="#FCFCFC" transform="translate(955,833)"/>
<path d="M0 0 C3.62528632 0.00538494 7.25044967 -0.0000042 10.87573242 -0.00634766 C25.91691583 -0.01015951 40.90687665 0.36111889 55.9284668 1.13037109 C56.78143624 4.33379249 57.09268401 7.18058979 57.1159668 10.50537109 C57.13014648 11.42060547 57.14432617 12.33583984 57.15893555 13.27880859 C56.59479524 20.25884969 53.37957795 24.62750663 49.1784668 29.94287109 C48.60572021 30.67989258 48.03297363 31.41691406 47.44287109 32.17626953 C42.72179365 38.21484207 37.85501338 44.13157908 32.95751953 50.02734375 C28.62528753 55.24974383 24.45396611 60.56921076 20.3425293 65.96630859 C13.130918 75.41842049 5.70535351 84.69595126 -1.83251953 93.8894043 C-2.35612061 94.52966553 -2.87972168 95.16992676 -3.41918945 95.82958984 C-3.88333252 96.39508545 -4.34747559 96.96058105 -4.82568359 97.54321289 C-5.98225319 99.01663224 -7.03250736 100.57183233 -8.0715332 102.13037109 C-6.23715698 102.16795532 -6.23715698 102.16795532 -4.36572266 102.20629883 C0.28082399 102.30226084 4.92728448 102.40197698 9.57373047 102.50268555 C11.56426952 102.54533653 13.55482913 102.58704113 15.54541016 102.62768555 C29.35587463 102.91052945 43.13284221 103.42122236 56.9284668 104.13037109 C56.9284668 113.04037109 56.9284668 121.95037109 56.9284668 131.13037109 C46.27761185 131.1531931 35.62677381 131.17144015 24.9758997 131.18218327 C20.02738073 131.18734595 15.07887973 131.19431924 10.13037109 131.20581055 C-10.96012266 131.25354588 -32.00534207 131.29422731 -53.0715332 130.13037109 C-53.72888104 126.95870877 -54.22976574 123.99820567 -54.2590332 120.75537109 C-54.27321289 120.04638672 -54.28739258 119.33740234 -54.30200195 118.60693359 C-53.71471428 112.29607963 -51.63386227 108.02336256 -47.6965332 103.13037109 C-47.25881592 102.57986084 -46.82109863 102.02935059 -46.37011719 101.4621582 C-44.94707197 99.6767832 -43.50946308 97.90377015 -42.0715332 96.13037109 C-41.08991263 94.90342715 -40.10945408 93.67555266 -39.13012695 92.44677734 C-37.11550484 89.92066231 -35.09536569 87.39911176 -33.0715332 84.88037109 C-30.23135154 81.33927056 -27.42928514 77.76947098 -24.6340332 74.19287109 C-20.66964052 69.12514318 -16.63890894 64.11576209 -12.5715332 59.13037109 C-4.24316916 48.92101136 3.83946319 38.53051859 11.9284668 28.13037109 C-9.1915332 27.47037109 -30.3115332 26.81037109 -52.0715332 26.13037109 C-52.70369129 21.70526451 -53.20936246 17.99231839 -53.1965332 13.63037109 C-53.19911133 12.75380859 -53.20168945 11.87724609 -53.2043457 10.97412109 C-53.04908288 7.6496701 -52.55854971 4.42099703 -52.0715332 1.13037109 C-34.70912392 0.35965124 -17.37938244 -0.03057059 0 0 Z " fill="#F9FAFA" transform="translate(105.071533203125,825.86962890625)"/>
<path d="M0 0 C0.02505615 1.00264893 0.0501123 2.00529785 0.07592773 3.03833008 C0.17110997 6.80877399 0.27104569 10.5790803 0.37231445 14.34936523 C0.41524942 15.971728 0.45694733 17.59412405 0.49731445 19.21655273 C0.72114822 28.17819346 0.99587128 37.08358338 2 46 C2.309375 45.29875 2.61875 44.5975 2.9375 43.875 C7.89067462 36.97057477 16.31308934 33.05639207 24.5234375 31.53125 C35.18343926 30.18729562 45.15508657 31.68480461 54 38 C56.8125 40.5 56.8125 40.5 59 43 C59.680625 43.70125 60.36125 44.4025 61.0625 45.125 C66.66425159 53.43727655 67.62801388 62.26505135 67.75 72.0625 C67.77819824 73.25351318 67.80639648 74.44452637 67.83544922 75.67163086 C67.91042964 79.11444298 67.95915719 82.55663704 68 86 C68.01514648 86.85078125 68.03029297 87.7015625 68.04589844 88.578125 C68.29007513 102.39495235 67.60295776 116.19932319 67 130 C64.08372496 130.1982823 61.1674877 130.38374319 58.25 130.5625 C57.44433594 130.61857422 56.63867188 130.67464844 55.80859375 130.73242188 C49.12939747 131.1268626 42.64983646 130.68749387 36 130 C35.97494385 128.69554932 35.9498877 127.39109863 35.92407227 126.04711914 C35.82863117 121.12484856 35.72876658 116.2026753 35.62768555 111.28051758 C35.58484552 109.16563217 35.54314455 107.05072332 35.50268555 104.93579102 C35.38652383 98.88534309 35.25015683 92.83605527 35.07794189 86.78692627 C35.02758656 84.98639757 34.98181225 83.18573228 34.94158936 81.38494873 C34.88549653 79.04586063 34.80442705 76.70910585 34.71484375 74.37109375 C34.67351318 73.08001709 34.63218262 71.78894043 34.58959961 70.45874023 C33.89760876 66.39934713 32.57700267 64.18314974 30 61 C24.55663222 57.73397933 19.28075996 57.0926671 13 58 C9.17134119 59.33108512 6.58244295 61.2234094 4.125 64.5 C2.07785799 69.04920448 1.73749765 73.42905321 1.47265625 78.37109375 C1.41066795 79.47812904 1.41066795 79.47812904 1.34742737 80.60752869 C0.8308949 90.41898213 0.6446757 100.24068079 0.4375 110.0625 C0.39416244 112.00846985 0.35054421 113.95443347 0.30664062 115.90039062 C0.20120358 120.60019516 0.09952198 125.30006664 0 130 C-10.42811284 130.70902441 -20.58835953 131.35081164 -31 130 C-31.98961208 86.94670356 -31.98961208 44.05329644 -31 1 C-27.33346352 0.8303866 -23.66675358 0.66484797 -20 0.5 C-18.97003906 0.45230469 -17.94007813 0.40460937 -16.87890625 0.35546875 C-11.24556714 0.10430076 -5.63886083 -0.05421982 0 0 Z " fill="#FCFCFC" transform="translate(563,826)"/>
<path d="M0 0 C9.33404648 9.5461839 12.13432667 19.83561354 12.4375 32.9375 C12.47020996 33.97374512 12.50291992 35.00999023 12.53662109 36.07763672 C13.06772302 54.69430483 12.77485135 73.21876838 11.75 91.8125 C2.89890951 92.75482142 -5.69011256 93.23510268 -14.55859375 92.3046875 C-15.44216553 92.21300293 -16.3257373 92.12131836 -17.23608398 92.02685547 C-18.23297241 91.92074951 -18.23297241 91.92074951 -19.25 91.8125 C-19.27426056 90.64858231 -19.27426056 90.64858231 -19.29901123 89.46115112 C-19.4551618 82.1338026 -19.62981576 74.80723594 -19.82505417 67.48083305 C-19.92477193 63.71458427 -20.01742979 59.94844195 -20.09375 56.18164062 C-20.16772464 52.54360362 -20.26050956 48.90648093 -20.36612701 45.26922989 C-20.40307383 43.88439159 -20.4333418 42.49935782 -20.45668793 41.11422348 C-20.38714157 31.09149991 -20.38714157 31.09149991 -25.25 22.8125 C-29.19734475 20.01798422 -33.05723127 18.8125 -37.875 18.8125 C-43.58125726 20.50324289 -47.06428575 22.00626016 -50.40527344 27.09570312 C-53.1955747 33.02789768 -52.9610084 39.27478449 -53.078125 45.71875 C-53.11560983 47.05257798 -53.15476113 48.38636008 -53.19549561 49.72009277 C-53.29750636 53.20496373 -53.37708903 56.68998796 -53.45178223 60.17553711 C-53.53226383 63.74240019 -53.63426316 67.30864347 -53.734375 70.875 C-53.9271413 77.8537121 -54.09618584 84.83282356 -54.25 91.8125 C-55.66823534 91.97830706 -57.08674827 92.14174077 -58.50537109 92.30419922 C-59.29527435 92.39547089 -60.08517761 92.48674255 -60.89901733 92.58078003 C-64.22954783 92.9090472 -67.52975689 92.94454262 -70.875 92.9375 C-72.71964844 92.94136719 -72.71964844 92.94136719 -74.6015625 92.9453125 C-78.21856933 92.81364416 -81.67398959 92.34988882 -85.25 91.8125 C-86.26291189 76.24734374 -86.40702346 60.71533103 -86.38037109 45.12060547 C-86.37465127 41.73007815 -86.37806812 38.339629 -86.38382339 34.94910431 C-86.42219196 8.13650428 -86.42219196 8.13650428 -85.25 -5.1875 C-82.05512679 -5.89419683 -79.08716061 -6.31527004 -75.81640625 -6.3203125 C-74.5953418 -6.32224609 -74.5953418 -6.32224609 -73.34960938 -6.32421875 C-72.51236328 -6.32035156 -71.67511719 -6.31648437 -70.8125 -6.3125 C-69.97912109 -6.31636719 -69.14574219 -6.32023438 -68.28710938 -6.32421875 C-67.47177734 -6.32292969 -66.65644531 -6.32164062 -65.81640625 -6.3203125 C-65.08365479 -6.31918457 -64.35090332 -6.31805664 -63.59594727 -6.31689453 C-60.79286892 -6.16228619 -58.01914208 -5.64902368 -55.25 -5.1875 C-54.59 -0.8975 -53.93 3.3925 -53.25 7.8125 C-52.63125 6.5440625 -52.63125 6.5440625 -52 5.25 C-47.80251183 -1.01646283 -39.53697191 -4.93257973 -32.375 -6.6875 C-20.77096466 -8.36654048 -9.73149661 -6.55004579 0 0 Z " fill="#FAFAFA" transform="translate(372.25,864.1875)"/>
<path d="M0 0 C0.495 11.88 0.495 11.88 1 24 C7.27 24.33 13.54 24.66 20 25 C20.6882805 33.48879284 20.94879047 40.46088573 20 49 C13.73 49.33 7.46 49.66 1 50 C0.95394987 55.42624041 0.91416595 60.85179567 0.89013672 66.27807617 C0.88011358 68.12184962 0.86649148 69.96560731 0.84912109 71.80932617 C0.82471005 74.4679759 0.81347983 77.12641443 0.8046875 79.78515625 C0.79436493 80.60210464 0.78404236 81.41905304 0.77340698 82.26075745 C0.7724465 87.22192796 1.29645854 91.32226754 3 96 C5.38479807 97.97326212 6.70625372 98.00246156 9.796875 97.9765625 C10.77140625 97.86054687 11.7459375 97.74453125 12.75 97.625 C13.73484375 97.51414062 14.7196875 97.40328125 15.734375 97.2890625 C16.48203125 97.19367188 17.2296875 97.09828125 18 97 C18.70174756 100.24709194 19.38388069 103.49800252 20.0625 106.75 C20.26166016 107.67039062 20.46082031 108.59078125 20.66601562 109.5390625 C20.84970703 110.42851563 21.03339844 111.31796875 21.22265625 112.234375 C21.39547119 113.05131836 21.56828613 113.86826172 21.74633789 114.70996094 C22.0160039 117.14448183 21.87872264 118.71896027 21 121 C11.7577083 125.98816827 0.42694774 125.46823018 -9.4453125 123.09765625 C-18.66587374 120.250428 -24.37907989 116.91970807 -28.9765625 108.26953125 C-30.62416027 104.61588886 -31.13927716 101.76633051 -31.20532227 97.79418945 C-31.22526749 96.73331619 -31.24521271 95.67244293 -31.26576233 94.579422 C-31.28247482 93.43559555 -31.29918732 92.2917691 -31.31640625 91.11328125 C-31.33718735 89.94113571 -31.35796844 88.76899017 -31.37937927 87.56132507 C-31.44483818 83.81177714 -31.50374296 80.06215837 -31.5625 76.3125 C-31.60568868 73.77277909 -31.64930308 71.23306538 -31.69335938 68.69335938 C-31.8005159 62.46231245 -31.90179388 56.23119416 -32 50 C-38.93 49.505 -38.93 49.505 -46 49 C-46.85203444 43.88779336 -47.06116491 42.5290241 -46 38 C-45.78459917 35.73164316 -45.59820914 33.46038646 -45.4375 31.1875 C-45.293125 29.145625 -45.14875 27.10375 -45 25 C-38.565 24.505 -38.565 24.505 -32 24 C-31.67 16.08 -31.34 8.16 -31 0 C-20.4762205 -1.23005215 -10.55431423 -0.67849163 0 0 Z " fill="#FCFCFC" transform="translate(495,834)"/>
<path d="M0 0 C4.01281979 0.4862473 7.06406835 0.40499517 11 -0.4375 C18.28413284 -0.15336716 18.28413284 -0.15336716 20 1.5625 C20.16043058 3.83924069 20.25185366 6.12087073 20.31640625 8.40234375 C20.33727798 9.10670059 20.35814972 9.81105743 20.37965393 10.53675842 C20.44632486 12.8577213 20.50503205 15.17879204 20.5625 17.5 C20.58334656 18.29591553 20.60419312 19.09183105 20.62567139 19.91186523 C21.30075856 45.82948392 20.8492299 71.65647082 20 97.5625 C17.08372496 97.7607823 14.1674877 97.94624319 11.25 98.125 C10.04150391 98.20911133 10.04150391 98.20911133 8.80859375 98.29492188 C2.12939747 98.6893626 -4.35016354 98.24999387 -11 97.5625 C-12.16646664 65.52189492 -12.25805957 33.60286807 -11 1.5625 C-6.9225596 -0.20419029 -4.43520932 -0.54874401 0 0 Z " fill="#FCFCFC" transform="translate(415,858.4375)"/>
<path d="M0 0 C0.19796547 2.3116276 0.38281807 4.6243794 0.5625 6.9375 C0.71912109 8.86916016 0.71912109 8.86916016 0.87890625 10.83984375 C1.12197536 15.28962897 0.61176974 19.59640613 0 24 C-28.71766063 25.3061377 -57.28766461 25.14910464 -86 24 C-86.19796547 21.6883724 -86.38281807 19.3756206 -86.5625 17.0625 C-86.71912109 15.13083984 -86.71912109 15.13083984 -86.87890625 13.16015625 C-87.12197536 8.71037103 -86.61176974 4.40359387 -86 0 C-57.28423041 -1.09771547 -28.72145654 -1.2961195 0 0 Z " fill="#FAFAFA" transform="translate(729,955)"/>
<path d="M0 0 C0.83753431 2.89792617 1.09915437 5.40316866 1.02734375 8.4140625 C1.00897461 9.68056641 1.00897461 9.68056641 0.99023438 10.97265625 C0.95554228 12.71754029 0.91659802 14.46234585 0.87304688 16.20703125 C0.81496818 20.72350392 1.07694913 24.60051777 2.234375 28.9765625 C3.547737 34.98201141 1.66609361 39.23637605 -0.6875 44.75 C-1.54482792 46.89248615 -2.40021079 49.03575138 -3.25390625 51.1796875 C-3.93477295 52.85756348 -3.93477295 52.85756348 -4.62939453 54.56933594 C-6.91618977 60.29324879 -9.01645377 66.08355772 -11.125 71.875 C-11.56714844 73.08140137 -12.00929687 74.28780273 -12.46484375 75.53076172 C-19.09686783 93.64352073 -25.53246441 111.8280579 -32 130 C-37.94 130 -43.88 130 -50 130 C-49.13375 127.195 -48.2675 124.39 -47.375 121.5 C-47.11638184 120.65373047 -46.85776367 119.80746094 -46.59130859 118.93554688 C-44.28677694 111.56234482 -41.55478667 104.35816102 -38.81170654 97.14038086 C-37.46024378 93.57672222 -36.12549274 90.00681684 -34.7890625 86.4375 C-34.26179886 85.03121996 -33.73445542 83.62496984 -33.20703125 82.21875 C-32.94744629 81.52652344 -32.68786133 80.83429688 -32.42041016 80.12109375 C-29.21020508 71.56054688 -29.21020508 71.56054688 -26 63 C-21.05 63 -16.1 63 -11 63 C-11 54.09 -11 45.18 -11 36 C-11.99 35.67 -12.98 35.34 -14 35 C-13.57589844 34.06542969 -13.15179688 33.13085938 -12.71484375 32.16796875 C-7.98285684 21.61314885 -3.89409336 10.88925802 0 0 Z " fill="#010101" transform="translate(173,894)"/>
<path d="M0 0 C136.62 0 273.24 0 414 0 C414 0.33 414 0.66 414 1 C283.32 1.33 152.64 1.66 18 2 C14.04 13.88 10.08 25.76 6 38 C4.78183594 41.64289062 3.56367188 45.28578125 2.30859375 49.0390625 C1.22053493 52.29319747 1.22053493 52.29319747 0.13256836 55.54736328 C-0.34643797 56.97916654 -0.82596091 58.41079704 -1.3059082 59.84228516 C-1.80140712 61.32056387 -2.2961834 62.79908502 -2.79019165 64.27786255 C-3.25496029 65.66894904 -3.72133015 67.05950191 -4.18954468 68.44943237 C-5.44426664 72.20428787 -6.53650139 75.96923859 -7.54296875 79.796875 C-8.72084522 83.79250725 -10.00951684 85.54566309 -13.75 87.625 C-18.83724373 90.75044739 -22.33184434 94.32370884 -26 99 C-27 97 -27 97 -26.43359375 95.1887207 C-26.10488281 94.44195068 -25.77617187 93.69518066 -25.4375 92.92578125 C-25.06044922 92.05074951 -24.68339844 91.17571777 -24.29492188 90.27416992 C-23.86759766 89.29681885 -23.44027344 88.31946777 -23 87.3125 C-18.25438702 76.19536623 -13.82556141 64.97400737 -9.5 53.6875 C-9.17947662 52.85185516 -8.85895325 52.01621033 -8.52871704 51.15524292 C-3.21397972 37.28543409 1.9960592 23.37861171 7.09301758 9.42724609 C8.02415899 6.93534624 9.0027131 4.46608861 10 2 C6.7 1.67 3.4 1.34 0 1 C0 0.67 0 0.34 0 0 Z " fill="#212120" transform="translate(207,779)"/>
<path d="M0 0 C5.61 0 11.22 0 17 0 C15.68 0.33 14.36 0.66 13 1 C12.2440579 3.05796135 11.51149918 5.12729327 10.89404297 7.23095703 C9.13622303 12.67530269 6.50532119 17.77364343 4.0625 22.9375 C3.48935794 24.15843294 2.91677595 25.37962894 2.34472656 26.60107422 C1.46022146 28.48940995 0.57532579 30.37755242 -0.31143188 32.26483154 C-3.49230558 39.03561796 -6.62189544 45.82969302 -9.75 52.625 C-10.74445861 54.7840076 -11.73922105 56.94287531 -12.734375 59.1015625 C-13.14913086 60.00213379 -13.56388672 60.90270508 -13.99121094 61.83056641 C-14.64168405 63.22942993 -15.31008197 64.62016394 -16 66 C-22.6 66 -29.2 66 -36 66 C-32.72415397 59.18968851 -29.26366411 52.65836005 -25.375 46.1875 C-20.70857819 38.4029787 -16.50532037 30.41584305 -12.34814453 22.35009766 C-8.43232233 14.77013905 -4.3038325 7.36617486 0 0 Z " fill="#010101" transform="translate(215,958)"/>
<path d="M0 0 C3.76836063 3.08320415 4.87967843 5.81558176 5.875 10.5625 C6.35415839 15.97597032 5.28718708 20.05458389 2 24.4375 C-2.49787604 27.88268165 -6.80744719 29.87818672 -12.56640625 29.52734375 C-17.069617 28.72871174 -21.55784113 27.8683554 -24.9375 24.6875 C-27.78798635 19.91004936 -29.49000621 15.45078972 -28.5 9.875 C-26.92827293 4.63282796 -23.81549009 1.97002982 -19.375 -1.0625 C-12.83109222 -4.41835015 -6.53600339 -2.92034194 0 0 Z " fill="#FAFAFA" transform="translate(430.9375,819.3125)"/>
<path d="M0 0 C2.64 0 5.28 0 8 0 C7.41321669 3.52069985 6.64350079 5.71299843 5 9 C11.6 9.33 18.2 9.66 25 10 C25 10.33 25 10.66 25 11 C23.94872925 10.99830811 23.94872925 10.99830811 22.8762207 10.99658203 C19.68734456 11.00872008 16.50084673 11.06639742 13.3125 11.125 C12.20970703 11.12242187 11.10691406 11.11984375 9.97070312 11.1171875 C4.25261667 11.06109615 4.25261667 11.06109615 -0.76879883 13.34521484 C-2.24982192 15.14614754 -2.24982192 15.14614754 -4 18 C-7.3125 19.375 -7.3125 19.375 -10 20 C-8.56347895 15.08558588 -6.45840385 10.99761642 -3.875 6.625 C-3.50246094 5.98433594 -3.12992188 5.34367188 -2.74609375 4.68359375 C-1.83565998 3.11951523 -0.91851809 1.55934466 0 0 Z " fill="#0F0F0F" transform="translate(240,915)"/>
<path d="M0 0 C0.83337891 -0.00386719 1.66675781 -0.00773438 2.52539062 -0.01171875 C6.98452587 -0.00466873 11.17370425 0.22583209 15.5625 1.125 C15.92423964 3.58243786 16.27718169 6.04058793 16.625 8.5 C16.72876953 9.19867187 16.83253906 9.89734375 16.93945312 10.6171875 C17.67578125 15.8984375 17.67578125 15.8984375 16.5625 18.125 C15.9025 18.125 15.2425 18.125 14.5625 18.125 C14.5625 12.845 14.5625 7.565 14.5625 2.125 C4.9925 2.125 -4.5775 2.125 -14.4375 2.125 C-14.4375 1.795 -14.4375 1.465 -14.4375 1.125 C-9.63296395 -0.11297861 -4.92382326 -0.02274283 0 0 Z " fill="#999B9A" transform="translate(301.4375,857.875)"/>
<path d="M0 0 C2 3 2 3 1.9375 5.0625 C1 7 1 7 -1.5625 8.25 C-2.366875 8.4975 -3.17125 8.745 -4 9 C-2.94124926 5.59687262 -1.99097846 2.98646769 0 0 Z " fill="#C4C4C3" transform="translate(493,19)"/>
<path d="M0 0 C0.66 0.33 1.32 0.66 2 1 C-0.97 3.97 -3.94 6.94 -7 10 C-7 7 -7 7 -4.625 4.4375 C-3.75875 3.633125 -2.8925 2.82875 -2 2 C-1.34 1.34 -0.68 0.68 0 0 Z " fill="#E2E3E3" transform="translate(756,837)"/>
<path d="M0 0 C1.98 0.495 1.98 0.495 4 1 C4.33 2.65 4.66 4.3 5 6 C3.02 5.34 1.04 4.68 -1 4 C-0.67 2.68 -0.34 1.36 0 0 Z " fill="#DAD9D8" transform="translate(952,750)"/>
<path d="M0 0 C0.66 0.33 1.32 0.66 2 1 C-1.465 3.97 -1.465 3.97 -5 7 C-3.75023244 3.34683329 -3.32901247 2.21934164 0 0 Z " fill="#CBCBCB" transform="translate(886,835)"/>
<path d="" fill="#000000" transform="translate(0,0)"/>
<path d="" fill="#D2D2D2" transform="translate(0,0)"/>
</svg>
